<svg width="21" height="20" viewBox="0 0 21 20" fill="none" xmlns="http://www.w3.org/2000/svg">
<path d="M4.66699 12.4998H3.83366C3.39163 12.4998 2.96771 12.3242 2.65515 12.0117C2.34259 11.6991 2.16699 11.2752 2.16699 10.8332V3.33317C2.16699 2.89114 2.34259 2.46722 2.65515 2.15466C2.96771 1.8421 3.39163 1.6665 3.83366 1.6665H11.3337C11.7757 1.6665 12.1996 1.8421 12.5122 2.15466C12.8247 2.46722 13.0003 2.89114 13.0003 3.33317V4.1665M9.66699 7.49984H17.167C18.0875 7.49984 18.8337 8.24603 18.8337 9.1665V16.6665C18.8337 17.587 18.0875 18.3332 17.167 18.3332H9.66699C8.74652 18.3332 8.00033 17.587 8.00033 16.6665V9.1665C8.00033 8.24603 8.74652 7.49984 9.66699 7.49984Z" stroke="#120B48" stroke-width="1.67" stroke-linecap="round" stroke-linejoin="round"/>
</svg>
