<svg width="331" height="314" viewBox="0 0 331 314" fill="none" xmlns="http://www.w3.org/2000/svg">
<g opacity="0.5" clip-path="url(#clip0_615_2619)">
<path d="M5.78846 10.5769C8.7092 10.5769 11.0769 8.2092 11.0769 5.28846C11.0769 2.36772 8.7092 0 5.78846 0C2.86772 0 0.5 2.36772 0.5 5.28846C0.5 8.2092 2.86772 10.5769 5.78846 10.5769Z" fill="#BAF6EB"/>
<path d="M33.2885 10.5769C36.2092 10.5769 38.5769 8.2092 38.5769 5.28846C38.5769 2.36772 36.2092 0 33.2885 0C30.3677 0 28 2.36772 28 5.28846C28 8.2092 30.3677 10.5769 33.2885 10.5769Z" fill="#BAF6EB"/>
<path d="M60.7885 10.5769C63.7092 10.5769 66.0769 8.2092 66.0769 5.28846C66.0769 2.36772 63.7092 0 60.7885 0C57.8677 0 55.5 2.36772 55.5 5.28846C55.5 8.2092 57.8677 10.5769 60.7885 10.5769Z" fill="#BAF6EB"/>
<path d="M88.2885 10.5769C91.2092 10.5769 93.5769 8.2092 93.5769 5.28846C93.5769 2.36772 91.2092 0 88.2885 0C85.3677 0 83 2.36772 83 5.28846C83 8.2092 85.3677 10.5769 88.2885 10.5769Z" fill="#BAF6EB"/>
<path d="M115.788 10.5769C118.709 10.5769 121.077 8.2092 121.077 5.28846C121.077 2.36772 118.709 0 115.788 0C112.868 0 110.5 2.36772 110.5 5.28846C110.5 8.2092 112.868 10.5769 115.788 10.5769Z" fill="#BAF6EB"/>
<path d="M143.288 10.5769C146.209 10.5769 148.577 8.2092 148.577 5.28846C148.577 2.36772 146.209 0 143.288 0C140.368 0 138 2.36772 138 5.28846C138 8.2092 140.368 10.5769 143.288 10.5769Z" fill="#BAF6EB"/>
<path d="M170.788 10.5769C173.709 10.5769 176.077 8.2092 176.077 5.28846C176.077 2.36772 173.709 0 170.788 0C167.868 0 165.5 2.36772 165.5 5.28846C165.5 8.2092 167.868 10.5769 170.788 10.5769Z" fill="#BAF6EB"/>
<path d="M198.288 10.5769C201.209 10.5769 203.577 8.2092 203.577 5.28846C203.577 2.36772 201.209 0 198.288 0C195.368 0 193 2.36772 193 5.28846C193 8.2092 195.368 10.5769 198.288 10.5769Z" fill="#BAF6EB"/>
<path d="M225.788 10.5769C228.709 10.5769 231.077 8.2092 231.077 5.28846C231.077 2.36772 228.709 0 225.788 0C222.868 0 220.5 2.36772 220.5 5.28846C220.5 8.2092 222.868 10.5769 225.788 10.5769Z" fill="#BAF6EB"/>
<path d="M253.288 10.5769C256.209 10.5769 258.577 8.2092 258.577 5.28846C258.577 2.36772 256.209 0 253.288 0C250.368 0 248 2.36772 248 5.28846C248 8.2092 250.368 10.5769 253.288 10.5769Z" fill="#BAF6EB"/>
<path d="M280.788 10.5769C283.709 10.5769 286.077 8.2092 286.077 5.28846C286.077 2.36772 283.709 0 280.788 0C277.868 0 275.5 2.36772 275.5 5.28846C275.5 8.2092 277.868 10.5769 280.788 10.5769Z" fill="#BAF6EB"/>
<path d="M308.288 10.5769C311.209 10.5769 313.577 8.2092 313.577 5.28846C313.577 2.36772 311.209 0 308.288 0C305.368 0 303 2.36772 303 5.28846C303 8.2092 305.368 10.5769 308.288 10.5769Z" fill="#BAF6EB"/>
<path d="M5.78846 38.0769C8.7092 38.0769 11.0769 35.7092 11.0769 32.7885C11.0769 29.8677 8.7092 27.5 5.78846 27.5C2.86772 27.5 0.5 29.8677 0.5 32.7885C0.5 35.7092 2.86772 38.0769 5.78846 38.0769Z" fill="#BAF6EB"/>
<path d="M33.2885 38.0769C36.2092 38.0769 38.5769 35.7092 38.5769 32.7885C38.5769 29.8677 36.2092 27.5 33.2885 27.5C30.3677 27.5 28 29.8677 28 32.7885C28 35.7092 30.3677 38.0769 33.2885 38.0769Z" fill="#BAF6EB"/>
<path d="M60.7885 38.0769C63.7092 38.0769 66.0769 35.7092 66.0769 32.7885C66.0769 29.8677 63.7092 27.5 60.7885 27.5C57.8677 27.5 55.5 29.8677 55.5 32.7885C55.5 35.7092 57.8677 38.0769 60.7885 38.0769Z" fill="#BAF6EB"/>
<path d="M88.2885 38.0769C91.2092 38.0769 93.5769 35.7092 93.5769 32.7885C93.5769 29.8677 91.2092 27.5 88.2885 27.5C85.3677 27.5 83 29.8677 83 32.7885C83 35.7092 85.3677 38.0769 88.2885 38.0769Z" fill="#BAF6EB"/>
<path d="M115.788 38.0769C118.709 38.0769 121.077 35.7092 121.077 32.7885C121.077 29.8677 118.709 27.5 115.788 27.5C112.868 27.5 110.5 29.8677 110.5 32.7885C110.5 35.7092 112.868 38.0769 115.788 38.0769Z" fill="#BAF6EB"/>
<path d="M143.288 38.0769C146.209 38.0769 148.577 35.7092 148.577 32.7885C148.577 29.8677 146.209 27.5 143.288 27.5C140.368 27.5 138 29.8677 138 32.7885C138 35.7092 140.368 38.0769 143.288 38.0769Z" fill="#BAF6EB"/>
<path d="M170.788 38.0769C173.709 38.0769 176.077 35.7092 176.077 32.7885C176.077 29.8677 173.709 27.5 170.788 27.5C167.868 27.5 165.5 29.8677 165.5 32.7885C165.5 35.7092 167.868 38.0769 170.788 38.0769Z" fill="#BAF6EB"/>
<path d="M198.288 38.0769C201.209 38.0769 203.577 35.7092 203.577 32.7885C203.577 29.8677 201.209 27.5 198.288 27.5C195.368 27.5 193 29.8677 193 32.7885C193 35.7092 195.368 38.0769 198.288 38.0769Z" fill="#BAF6EB"/>
<path d="M225.788 38.0769C228.709 38.0769 231.077 35.7092 231.077 32.7885C231.077 29.8677 228.709 27.5 225.788 27.5C222.868 27.5 220.5 29.8677 220.5 32.7885C220.5 35.7092 222.868 38.0769 225.788 38.0769Z" fill="#BAF6EB"/>
<path d="M253.288 38.0769C256.209 38.0769 258.577 35.7092 258.577 32.7885C258.577 29.8677 256.209 27.5 253.288 27.5C250.368 27.5 248 29.8677 248 32.7885C248 35.7092 250.368 38.0769 253.288 38.0769Z" fill="#BAF6EB"/>
<path d="M280.788 38.0769C283.709 38.0769 286.077 35.7092 286.077 32.7885C286.077 29.8677 283.709 27.5 280.788 27.5C277.868 27.5 275.5 29.8677 275.5 32.7885C275.5 35.7092 277.868 38.0769 280.788 38.0769Z" fill="#BAF6EB"/>
<path d="M308.288 38.0769C311.209 38.0769 313.577 35.7092 313.577 32.7885C313.577 29.8677 311.209 27.5 308.288 27.5C305.368 27.5 303 29.8677 303 32.7885C303 35.7092 305.368 38.0769 308.288 38.0769Z" fill="#BAF6EB"/>
<path d="M5.78846 65.5769C8.7092 65.5769 11.0769 63.2092 11.0769 60.2885C11.0769 57.3677 8.7092 55 5.78846 55C2.86772 55 0.5 57.3677 0.5 60.2885C0.5 63.2092 2.86772 65.5769 5.78846 65.5769Z" fill="#BAF6EB"/>
<path d="M33.2885 65.5769C36.2092 65.5769 38.5769 63.2092 38.5769 60.2885C38.5769 57.3677 36.2092 55 33.2885 55C30.3677 55 28 57.3677 28 60.2885C28 63.2092 30.3677 65.5769 33.2885 65.5769Z" fill="#BAF6EB"/>
<path d="M60.7885 65.5769C63.7092 65.5769 66.0769 63.2092 66.0769 60.2885C66.0769 57.3677 63.7092 55 60.7885 55C57.8677 55 55.5 57.3677 55.5 60.2885C55.5 63.2092 57.8677 65.5769 60.7885 65.5769Z" fill="#BAF6EB"/>
<path d="M88.2885 65.5769C91.2092 65.5769 93.5769 63.2092 93.5769 60.2885C93.5769 57.3677 91.2092 55 88.2885 55C85.3677 55 83 57.3677 83 60.2885C83 63.2092 85.3677 65.5769 88.2885 65.5769Z" fill="#BAF6EB"/>
<path d="M115.788 65.5769C118.709 65.5769 121.077 63.2092 121.077 60.2885C121.077 57.3677 118.709 55 115.788 55C112.868 55 110.5 57.3677 110.5 60.2885C110.5 63.2092 112.868 65.5769 115.788 65.5769Z" fill="#BAF6EB"/>
<path d="M143.288 65.5769C146.209 65.5769 148.577 63.2092 148.577 60.2885C148.577 57.3677 146.209 55 143.288 55C140.368 55 138 57.3677 138 60.2885C138 63.2092 140.368 65.5769 143.288 65.5769Z" fill="#BAF6EB"/>
<path d="M170.788 65.5769C173.709 65.5769 176.077 63.2092 176.077 60.2885C176.077 57.3677 173.709 55 170.788 55C167.868 55 165.5 57.3677 165.5 60.2885C165.5 63.2092 167.868 65.5769 170.788 65.5769Z" fill="#BAF6EB"/>
<path d="M198.288 65.5769C201.209 65.5769 203.577 63.2092 203.577 60.2885C203.577 57.3677 201.209 55 198.288 55C195.368 55 193 57.3677 193 60.2885C193 63.2092 195.368 65.5769 198.288 65.5769Z" fill="#BAF6EB"/>
<path d="M225.788 65.5769C228.709 65.5769 231.077 63.2092 231.077 60.2885C231.077 57.3677 228.709 55 225.788 55C222.868 55 220.5 57.3677 220.5 60.2885C220.5 63.2092 222.868 65.5769 225.788 65.5769Z" fill="#BAF6EB"/>
<path d="M253.288 65.5769C256.209 65.5769 258.577 63.2092 258.577 60.2885C258.577 57.3677 256.209 55 253.288 55C250.368 55 248 57.3677 248 60.2885C248 63.2092 250.368 65.5769 253.288 65.5769Z" fill="#BAF6EB"/>
<path d="M280.788 65.5769C283.709 65.5769 286.077 63.2092 286.077 60.2885C286.077 57.3677 283.709 55 280.788 55C277.868 55 275.5 57.3677 275.5 60.2885C275.5 63.2092 277.868 65.5769 280.788 65.5769Z" fill="#BAF6EB"/>
<path d="M308.288 65.5769C311.209 65.5769 313.577 63.2092 313.577 60.2885C313.577 57.3677 311.209 55 308.288 55C305.368 55 303 57.3677 303 60.2885C303 63.2092 305.368 65.5769 308.288 65.5769Z" fill="#BAF6EB"/>
<path d="M5.78846 93.0769C8.7092 93.0769 11.0769 90.7092 11.0769 87.7885C11.0769 84.8677 8.7092 82.5 5.78846 82.5C2.86772 82.5 0.5 84.8677 0.5 87.7885C0.5 90.7092 2.86772 93.0769 5.78846 93.0769Z" fill="#BAF6EB"/>
<path d="M33.2885 93.0769C36.2092 93.0769 38.5769 90.7092 38.5769 87.7885C38.5769 84.8677 36.2092 82.5 33.2885 82.5C30.3677 82.5 28 84.8677 28 87.7885C28 90.7092 30.3677 93.0769 33.2885 93.0769Z" fill="#BAF6EB"/>
<path d="M60.7885 93.0769C63.7092 93.0769 66.0769 90.7092 66.0769 87.7885C66.0769 84.8677 63.7092 82.5 60.7885 82.5C57.8677 82.5 55.5 84.8677 55.5 87.7885C55.5 90.7092 57.8677 93.0769 60.7885 93.0769Z" fill="#BAF6EB"/>
<path d="M88.2885 93.0769C91.2092 93.0769 93.5769 90.7092 93.5769 87.7885C93.5769 84.8677 91.2092 82.5 88.2885 82.5C85.3677 82.5 83 84.8677 83 87.7885C83 90.7092 85.3677 93.0769 88.2885 93.0769Z" fill="#BAF6EB"/>
<path d="M115.788 93.0769C118.709 93.0769 121.077 90.7092 121.077 87.7885C121.077 84.8677 118.709 82.5 115.788 82.5C112.868 82.5 110.5 84.8677 110.5 87.7885C110.5 90.7092 112.868 93.0769 115.788 93.0769Z" fill="#BAF6EB"/>
<path d="M143.288 93.0769C146.209 93.0769 148.577 90.7092 148.577 87.7885C148.577 84.8677 146.209 82.5 143.288 82.5C140.368 82.5 138 84.8677 138 87.7885C138 90.7092 140.368 93.0769 143.288 93.0769Z" fill="#BAF6EB"/>
<path d="M170.788 93.0769C173.709 93.0769 176.077 90.7092 176.077 87.7885C176.077 84.8677 173.709 82.5 170.788 82.5C167.868 82.5 165.5 84.8677 165.5 87.7885C165.5 90.7092 167.868 93.0769 170.788 93.0769Z" fill="#BAF6EB"/>
<path d="M198.288 93.0769C201.209 93.0769 203.577 90.7092 203.577 87.7885C203.577 84.8677 201.209 82.5 198.288 82.5C195.368 82.5 193 84.8677 193 87.7885C193 90.7092 195.368 93.0769 198.288 93.0769Z" fill="#BAF6EB"/>
<path d="M225.788 93.0769C228.709 93.0769 231.077 90.7092 231.077 87.7885C231.077 84.8677 228.709 82.5 225.788 82.5C222.868 82.5 220.5 84.8677 220.5 87.7885C220.5 90.7092 222.868 93.0769 225.788 93.0769Z" fill="#BAF6EB"/>
<path d="M253.288 93.0769C256.209 93.0769 258.577 90.7092 258.577 87.7885C258.577 84.8677 256.209 82.5 253.288 82.5C250.368 82.5 248 84.8677 248 87.7885C248 90.7092 250.368 93.0769 253.288 93.0769Z" fill="#BAF6EB"/>
<path d="M280.788 93.0769C283.709 93.0769 286.077 90.7092 286.077 87.7885C286.077 84.8677 283.709 82.5 280.788 82.5C277.868 82.5 275.5 84.8677 275.5 87.7885C275.5 90.7092 277.868 93.0769 280.788 93.0769Z" fill="#BAF6EB"/>
<path d="M308.288 93.0769C311.209 93.0769 313.577 90.7092 313.577 87.7885C313.577 84.8677 311.209 82.5 308.288 82.5C305.368 82.5 303 84.8677 303 87.7885C303 90.7092 305.368 93.0769 308.288 93.0769Z" fill="#BAF6EB"/>
<path d="M5.78846 120.577C8.7092 120.577 11.0769 118.209 11.0769 115.288C11.0769 112.368 8.7092 110 5.78846 110C2.86772 110 0.5 112.368 0.5 115.288C0.5 118.209 2.86772 120.577 5.78846 120.577Z" fill="#BAF6EB"/>
<path d="M33.2885 120.577C36.2092 120.577 38.5769 118.209 38.5769 115.288C38.5769 112.368 36.2092 110 33.2885 110C30.3677 110 28 112.368 28 115.288C28 118.209 30.3677 120.577 33.2885 120.577Z" fill="#BAF6EB"/>
<path d="M60.7885 120.577C63.7092 120.577 66.0769 118.209 66.0769 115.288C66.0769 112.368 63.7092 110 60.7885 110C57.8677 110 55.5 112.368 55.5 115.288C55.5 118.209 57.8677 120.577 60.7885 120.577Z" fill="#BAF6EB"/>
<path d="M88.2885 120.577C91.2092 120.577 93.5769 118.209 93.5769 115.288C93.5769 112.368 91.2092 110 88.2885 110C85.3677 110 83 112.368 83 115.288C83 118.209 85.3677 120.577 88.2885 120.577Z" fill="#BAF6EB"/>
<path d="M115.788 120.577C118.709 120.577 121.077 118.209 121.077 115.288C121.077 112.368 118.709 110 115.788 110C112.868 110 110.5 112.368 110.5 115.288C110.5 118.209 112.868 120.577 115.788 120.577Z" fill="#BAF6EB"/>
<path d="M143.288 120.577C146.209 120.577 148.577 118.209 148.577 115.288C148.577 112.368 146.209 110 143.288 110C140.368 110 138 112.368 138 115.288C138 118.209 140.368 120.577 143.288 120.577Z" fill="#BAF6EB"/>
<path d="M170.788 120.577C173.709 120.577 176.077 118.209 176.077 115.288C176.077 112.368 173.709 110 170.788 110C167.868 110 165.5 112.368 165.5 115.288C165.5 118.209 167.868 120.577 170.788 120.577Z" fill="#BAF6EB"/>
<path d="M198.288 120.577C201.209 120.577 203.577 118.209 203.577 115.288C203.577 112.368 201.209 110 198.288 110C195.368 110 193 112.368 193 115.288C193 118.209 195.368 120.577 198.288 120.577Z" fill="#BAF6EB"/>
<path d="M225.788 120.577C228.709 120.577 231.077 118.209 231.077 115.288C231.077 112.368 228.709 110 225.788 110C222.868 110 220.5 112.368 220.5 115.288C220.5 118.209 222.868 120.577 225.788 120.577Z" fill="#BAF6EB"/>
<path d="M253.288 120.577C256.209 120.577 258.577 118.209 258.577 115.288C258.577 112.368 256.209 110 253.288 110C250.368 110 248 112.368 248 115.288C248 118.209 250.368 120.577 253.288 120.577Z" fill="#BAF6EB"/>
<path d="M280.788 120.577C283.709 120.577 286.077 118.209 286.077 115.288C286.077 112.368 283.709 110 280.788 110C277.868 110 275.5 112.368 275.5 115.288C275.5 118.209 277.868 120.577 280.788 120.577Z" fill="#BAF6EB"/>
<path d="M308.288 120.577C311.209 120.577 313.577 118.209 313.577 115.288C313.577 112.368 311.209 110 308.288 110C305.368 110 303 112.368 303 115.288C303 118.209 305.368 120.577 308.288 120.577Z" fill="#BAF6EB"/>
<path d="M5.78846 148.077C8.7092 148.077 11.0769 145.709 11.0769 142.788C11.0769 139.868 8.7092 137.5 5.78846 137.5C2.86772 137.5 0.5 139.868 0.5 142.788C0.5 145.709 2.86772 148.077 5.78846 148.077Z" fill="#BAF6EB"/>
<path d="M33.2885 148.077C36.2092 148.077 38.5769 145.709 38.5769 142.788C38.5769 139.868 36.2092 137.5 33.2885 137.5C30.3677 137.5 28 139.868 28 142.788C28 145.709 30.3677 148.077 33.2885 148.077Z" fill="#BAF6EB"/>
<path d="M60.7885 148.077C63.7092 148.077 66.0769 145.709 66.0769 142.788C66.0769 139.868 63.7092 137.5 60.7885 137.5C57.8677 137.5 55.5 139.868 55.5 142.788C55.5 145.709 57.8677 148.077 60.7885 148.077Z" fill="#BAF6EB"/>
<path d="M88.2885 148.077C91.2092 148.077 93.5769 145.709 93.5769 142.788C93.5769 139.868 91.2092 137.5 88.2885 137.5C85.3677 137.5 83 139.868 83 142.788C83 145.709 85.3677 148.077 88.2885 148.077Z" fill="#BAF6EB"/>
<path d="M115.788 148.077C118.709 148.077 121.077 145.709 121.077 142.788C121.077 139.868 118.709 137.5 115.788 137.5C112.868 137.5 110.5 139.868 110.5 142.788C110.5 145.709 112.868 148.077 115.788 148.077Z" fill="#BAF6EB"/>
<path d="M143.288 148.077C146.209 148.077 148.577 145.709 148.577 142.788C148.577 139.868 146.209 137.5 143.288 137.5C140.368 137.5 138 139.868 138 142.788C138 145.709 140.368 148.077 143.288 148.077Z" fill="#BAF6EB"/>
<path d="M170.788 148.077C173.709 148.077 176.077 145.709 176.077 142.788C176.077 139.868 173.709 137.5 170.788 137.5C167.868 137.5 165.5 139.868 165.5 142.788C165.5 145.709 167.868 148.077 170.788 148.077Z" fill="#BAF6EB"/>
<path d="M198.288 148.077C201.209 148.077 203.577 145.709 203.577 142.788C203.577 139.868 201.209 137.5 198.288 137.5C195.368 137.5 193 139.868 193 142.788C193 145.709 195.368 148.077 198.288 148.077Z" fill="#BAF6EB"/>
<path d="M225.788 148.077C228.709 148.077 231.077 145.709 231.077 142.788C231.077 139.868 228.709 137.5 225.788 137.5C222.868 137.5 220.5 139.868 220.5 142.788C220.5 145.709 222.868 148.077 225.788 148.077Z" fill="#BAF6EB"/>
<path d="M253.288 148.077C256.209 148.077 258.577 145.709 258.577 142.788C258.577 139.868 256.209 137.5 253.288 137.5C250.368 137.5 248 139.868 248 142.788C248 145.709 250.368 148.077 253.288 148.077Z" fill="#BAF6EB"/>
<path d="M280.788 148.077C283.709 148.077 286.077 145.709 286.077 142.788C286.077 139.868 283.709 137.5 280.788 137.5C277.868 137.5 275.5 139.868 275.5 142.788C275.5 145.709 277.868 148.077 280.788 148.077Z" fill="#BAF6EB"/>
<path d="M308.288 148.077C311.209 148.077 313.577 145.709 313.577 142.788C313.577 139.868 311.209 137.5 308.288 137.5C305.368 137.5 303 139.868 303 142.788C303 145.709 305.368 148.077 308.288 148.077Z" fill="#BAF6EB"/>
<path d="M5.78846 175.577C8.7092 175.577 11.0769 173.209 11.0769 170.288C11.0769 167.368 8.7092 165 5.78846 165C2.86772 165 0.5 167.368 0.5 170.288C0.5 173.209 2.86772 175.577 5.78846 175.577Z" fill="#BAF6EB"/>
<path d="M33.2885 175.577C36.2092 175.577 38.5769 173.209 38.5769 170.288C38.5769 167.368 36.2092 165 33.2885 165C30.3677 165 28 167.368 28 170.288C28 173.209 30.3677 175.577 33.2885 175.577Z" fill="#BAF6EB"/>
<path d="M60.7885 175.577C63.7092 175.577 66.0769 173.209 66.0769 170.288C66.0769 167.368 63.7092 165 60.7885 165C57.8677 165 55.5 167.368 55.5 170.288C55.5 173.209 57.8677 175.577 60.7885 175.577Z" fill="#BAF6EB"/>
<path d="M88.2885 175.577C91.2092 175.577 93.5769 173.209 93.5769 170.288C93.5769 167.368 91.2092 165 88.2885 165C85.3677 165 83 167.368 83 170.288C83 173.209 85.3677 175.577 88.2885 175.577Z" fill="#BAF6EB"/>
<path d="M115.788 175.577C118.709 175.577 121.077 173.209 121.077 170.288C121.077 167.368 118.709 165 115.788 165C112.868 165 110.5 167.368 110.5 170.288C110.5 173.209 112.868 175.577 115.788 175.577Z" fill="#BAF6EB"/>
<path d="M143.288 175.577C146.209 175.577 148.577 173.209 148.577 170.288C148.577 167.368 146.209 165 143.288 165C140.368 165 138 167.368 138 170.288C138 173.209 140.368 175.577 143.288 175.577Z" fill="#BAF6EB"/>
<path d="M170.788 175.577C173.709 175.577 176.077 173.209 176.077 170.288C176.077 167.368 173.709 165 170.788 165C167.868 165 165.5 167.368 165.5 170.288C165.5 173.209 167.868 175.577 170.788 175.577Z" fill="#BAF6EB"/>
<path d="M198.288 175.577C201.209 175.577 203.577 173.209 203.577 170.288C203.577 167.368 201.209 165 198.288 165C195.368 165 193 167.368 193 170.288C193 173.209 195.368 175.577 198.288 175.577Z" fill="#BAF6EB"/>
<path d="M225.788 175.577C228.709 175.577 231.077 173.209 231.077 170.288C231.077 167.368 228.709 165 225.788 165C222.868 165 220.5 167.368 220.5 170.288C220.5 173.209 222.868 175.577 225.788 175.577Z" fill="#BAF6EB"/>
<path d="M253.288 175.577C256.209 175.577 258.577 173.209 258.577 170.288C258.577 167.368 256.209 165 253.288 165C250.368 165 248 167.368 248 170.288C248 173.209 250.368 175.577 253.288 175.577Z" fill="#BAF6EB"/>
<path d="M280.788 175.577C283.709 175.577 286.077 173.209 286.077 170.288C286.077 167.368 283.709 165 280.788 165C277.868 165 275.5 167.368 275.5 170.288C275.5 173.209 277.868 175.577 280.788 175.577Z" fill="#BAF6EB"/>
<path d="M308.288 175.577C311.209 175.577 313.577 173.209 313.577 170.288C313.577 167.368 311.209 165 308.288 165C305.368 165 303 167.368 303 170.288C303 173.209 305.368 175.577 308.288 175.577Z" fill="#BAF6EB"/>
<path d="M5.78846 203.077C8.7092 203.077 11.0769 200.709 11.0769 197.788C11.0769 194.868 8.7092 192.5 5.78846 192.5C2.86772 192.5 0.5 194.868 0.5 197.788C0.5 200.709 2.86772 203.077 5.78846 203.077Z" fill="#BAF6EB"/>
<path d="M33.2885 203.077C36.2092 203.077 38.5769 200.709 38.5769 197.788C38.5769 194.868 36.2092 192.5 33.2885 192.5C30.3677 192.5 28 194.868 28 197.788C28 200.709 30.3677 203.077 33.2885 203.077Z" fill="#BAF6EB"/>
<path d="M60.7885 203.077C63.7092 203.077 66.0769 200.709 66.0769 197.788C66.0769 194.868 63.7092 192.5 60.7885 192.5C57.8677 192.5 55.5 194.868 55.5 197.788C55.5 200.709 57.8677 203.077 60.7885 203.077Z" fill="#BAF6EB"/>
<path d="M88.2885 203.077C91.2092 203.077 93.5769 200.709 93.5769 197.788C93.5769 194.868 91.2092 192.5 88.2885 192.5C85.3677 192.5 83 194.868 83 197.788C83 200.709 85.3677 203.077 88.2885 203.077Z" fill="#BAF6EB"/>
<path d="M115.788 203.077C118.709 203.077 121.077 200.709 121.077 197.788C121.077 194.868 118.709 192.5 115.788 192.5C112.868 192.5 110.5 194.868 110.5 197.788C110.5 200.709 112.868 203.077 115.788 203.077Z" fill="#BAF6EB"/>
<path d="M143.288 203.077C146.209 203.077 148.577 200.709 148.577 197.788C148.577 194.868 146.209 192.5 143.288 192.5C140.368 192.5 138 194.868 138 197.788C138 200.709 140.368 203.077 143.288 203.077Z" fill="#BAF6EB"/>
<path d="M170.788 203.077C173.709 203.077 176.077 200.709 176.077 197.788C176.077 194.868 173.709 192.5 170.788 192.5C167.868 192.5 165.5 194.868 165.5 197.788C165.5 200.709 167.868 203.077 170.788 203.077Z" fill="#BAF6EB"/>
<path d="M198.288 203.077C201.209 203.077 203.577 200.709 203.577 197.788C203.577 194.868 201.209 192.5 198.288 192.5C195.368 192.5 193 194.868 193 197.788C193 200.709 195.368 203.077 198.288 203.077Z" fill="#BAF6EB"/>
<path d="M225.788 203.077C228.709 203.077 231.077 200.709 231.077 197.788C231.077 194.868 228.709 192.5 225.788 192.5C222.868 192.5 220.5 194.868 220.5 197.788C220.5 200.709 222.868 203.077 225.788 203.077Z" fill="#BAF6EB"/>
<path d="M253.288 203.077C256.209 203.077 258.577 200.709 258.577 197.788C258.577 194.868 256.209 192.5 253.288 192.5C250.368 192.5 248 194.868 248 197.788C248 200.709 250.368 203.077 253.288 203.077Z" fill="#BAF6EB"/>
<path d="M280.788 203.077C283.709 203.077 286.077 200.709 286.077 197.788C286.077 194.868 283.709 192.5 280.788 192.5C277.868 192.5 275.5 194.868 275.5 197.788C275.5 200.709 277.868 203.077 280.788 203.077Z" fill="#BAF6EB"/>
<path d="M308.288 203.077C311.209 203.077 313.577 200.709 313.577 197.788C313.577 194.868 311.209 192.5 308.288 192.5C305.368 192.5 303 194.868 303 197.788C303 200.709 305.368 203.077 308.288 203.077Z" fill="#BAF6EB"/>
<path d="M5.78846 230.577C8.7092 230.577 11.0769 228.209 11.0769 225.288C11.0769 222.368 8.7092 220 5.78846 220C2.86772 220 0.5 222.368 0.5 225.288C0.5 228.209 2.86772 230.577 5.78846 230.577Z" fill="#BAF6EB"/>
<path d="M33.2885 230.577C36.2092 230.577 38.5769 228.209 38.5769 225.288C38.5769 222.368 36.2092 220 33.2885 220C30.3677 220 28 222.368 28 225.288C28 228.209 30.3677 230.577 33.2885 230.577Z" fill="#BAF6EB"/>
<path d="M60.7885 230.577C63.7092 230.577 66.0769 228.209 66.0769 225.288C66.0769 222.368 63.7092 220 60.7885 220C57.8677 220 55.5 222.368 55.5 225.288C55.5 228.209 57.8677 230.577 60.7885 230.577Z" fill="#BAF6EB"/>
<path d="M88.2885 230.577C91.2092 230.577 93.5769 228.209 93.5769 225.288C93.5769 222.368 91.2092 220 88.2885 220C85.3677 220 83 222.368 83 225.288C83 228.209 85.3677 230.577 88.2885 230.577Z" fill="#BAF6EB"/>
<path d="M115.788 230.577C118.709 230.577 121.077 228.209 121.077 225.288C121.077 222.368 118.709 220 115.788 220C112.868 220 110.5 222.368 110.5 225.288C110.5 228.209 112.868 230.577 115.788 230.577Z" fill="#BAF6EB"/>
<path d="M143.288 230.577C146.209 230.577 148.577 228.209 148.577 225.288C148.577 222.368 146.209 220 143.288 220C140.368 220 138 222.368 138 225.288C138 228.209 140.368 230.577 143.288 230.577Z" fill="#BAF6EB"/>
<path d="M170.788 230.577C173.709 230.577 176.077 228.209 176.077 225.288C176.077 222.368 173.709 220 170.788 220C167.868 220 165.5 222.368 165.5 225.288C165.5 228.209 167.868 230.577 170.788 230.577Z" fill="#BAF6EB"/>
<path d="M198.288 230.577C201.209 230.577 203.577 228.209 203.577 225.288C203.577 222.368 201.209 220 198.288 220C195.368 220 193 222.368 193 225.288C193 228.209 195.368 230.577 198.288 230.577Z" fill="#BAF6EB"/>
<path d="M225.788 230.577C228.709 230.577 231.077 228.209 231.077 225.288C231.077 222.368 228.709 220 225.788 220C222.868 220 220.5 222.368 220.5 225.288C220.5 228.209 222.868 230.577 225.788 230.577Z" fill="#BAF6EB"/>
<path d="M253.288 230.577C256.209 230.577 258.577 228.209 258.577 225.288C258.577 222.368 256.209 220 253.288 220C250.368 220 248 222.368 248 225.288C248 228.209 250.368 230.577 253.288 230.577Z" fill="#BAF6EB"/>
<path d="M280.788 230.577C283.709 230.577 286.077 228.209 286.077 225.288C286.077 222.368 283.709 220 280.788 220C277.868 220 275.5 222.368 275.5 225.288C275.5 228.209 277.868 230.577 280.788 230.577Z" fill="#BAF6EB"/>
<path d="M308.288 230.577C311.209 230.577 313.577 228.209 313.577 225.288C313.577 222.368 311.209 220 308.288 220C305.368 220 303 222.368 303 225.288C303 228.209 305.368 230.577 308.288 230.577Z" fill="#BAF6EB"/>
<path d="M5.78846 258.077C8.7092 258.077 11.0769 255.709 11.0769 252.788C11.0769 249.868 8.7092 247.5 5.78846 247.5C2.86772 247.5 0.5 249.868 0.5 252.788C0.5 255.709 2.86772 258.077 5.78846 258.077Z" fill="#BAF6EB"/>
<path d="M33.2885 258.077C36.2092 258.077 38.5769 255.709 38.5769 252.788C38.5769 249.868 36.2092 247.5 33.2885 247.5C30.3677 247.5 28 249.868 28 252.788C28 255.709 30.3677 258.077 33.2885 258.077Z" fill="#BAF6EB"/>
<path d="M60.7885 258.077C63.7092 258.077 66.0769 255.709 66.0769 252.788C66.0769 249.868 63.7092 247.5 60.7885 247.5C57.8677 247.5 55.5 249.868 55.5 252.788C55.5 255.709 57.8677 258.077 60.7885 258.077Z" fill="#BAF6EB"/>
<path d="M88.2885 258.077C91.2092 258.077 93.5769 255.709 93.5769 252.788C93.5769 249.868 91.2092 247.5 88.2885 247.5C85.3677 247.5 83 249.868 83 252.788C83 255.709 85.3677 258.077 88.2885 258.077Z" fill="#BAF6EB"/>
<path d="M115.788 258.077C118.709 258.077 121.077 255.709 121.077 252.788C121.077 249.868 118.709 247.5 115.788 247.5C112.868 247.5 110.5 249.868 110.5 252.788C110.5 255.709 112.868 258.077 115.788 258.077Z" fill="#BAF6EB"/>
<path d="M143.288 258.077C146.209 258.077 148.577 255.709 148.577 252.788C148.577 249.868 146.209 247.5 143.288 247.5C140.368 247.5 138 249.868 138 252.788C138 255.709 140.368 258.077 143.288 258.077Z" fill="#BAF6EB"/>
<path d="M170.788 258.077C173.709 258.077 176.077 255.709 176.077 252.788C176.077 249.868 173.709 247.5 170.788 247.5C167.868 247.5 165.5 249.868 165.5 252.788C165.5 255.709 167.868 258.077 170.788 258.077Z" fill="#BAF6EB"/>
<path d="M198.288 258.077C201.209 258.077 203.577 255.709 203.577 252.788C203.577 249.868 201.209 247.5 198.288 247.5C195.368 247.5 193 249.868 193 252.788C193 255.709 195.368 258.077 198.288 258.077Z" fill="#BAF6EB"/>
<path d="M225.788 258.077C228.709 258.077 231.077 255.709 231.077 252.788C231.077 249.868 228.709 247.5 225.788 247.5C222.868 247.5 220.5 249.868 220.5 252.788C220.5 255.709 222.868 258.077 225.788 258.077Z" fill="#BAF6EB"/>
<path d="M253.288 258.077C256.209 258.077 258.577 255.709 258.577 252.788C258.577 249.868 256.209 247.5 253.288 247.5C250.368 247.5 248 249.868 248 252.788C248 255.709 250.368 258.077 253.288 258.077Z" fill="#BAF6EB"/>
<path d="M280.788 258.077C283.709 258.077 286.077 255.709 286.077 252.788C286.077 249.868 283.709 247.5 280.788 247.5C277.868 247.5 275.5 249.868 275.5 252.788C275.5 255.709 277.868 258.077 280.788 258.077Z" fill="#BAF6EB"/>
<path d="M308.288 258.077C311.209 258.077 313.577 255.709 313.577 252.788C313.577 249.868 311.209 247.5 308.288 247.5C305.368 247.5 303 249.868 303 252.788C303 255.709 305.368 258.077 308.288 258.077Z" fill="#BAF6EB"/>
<path d="M5.78846 285.577C8.7092 285.577 11.0769 283.209 11.0769 280.288C11.0769 277.368 8.7092 275 5.78846 275C2.86772 275 0.5 277.368 0.5 280.288C0.5 283.209 2.86772 285.577 5.78846 285.577Z" fill="#BAF6EB"/>
<path d="M33.2885 285.577C36.2092 285.577 38.5769 283.209 38.5769 280.288C38.5769 277.368 36.2092 275 33.2885 275C30.3677 275 28 277.368 28 280.288C28 283.209 30.3677 285.577 33.2885 285.577Z" fill="#BAF6EB"/>
<path d="M60.7885 285.577C63.7092 285.577 66.0769 283.209 66.0769 280.288C66.0769 277.368 63.7092 275 60.7885 275C57.8677 275 55.5 277.368 55.5 280.288C55.5 283.209 57.8677 285.577 60.7885 285.577Z" fill="#BAF6EB"/>
<path d="M88.2885 285.577C91.2092 285.577 93.5769 283.209 93.5769 280.288C93.5769 277.368 91.2092 275 88.2885 275C85.3677 275 83 277.368 83 280.288C83 283.209 85.3677 285.577 88.2885 285.577Z" fill="#BAF6EB"/>
<path d="M115.788 285.577C118.709 285.577 121.077 283.209 121.077 280.288C121.077 277.368 118.709 275 115.788 275C112.868 275 110.5 277.368 110.5 280.288C110.5 283.209 112.868 285.577 115.788 285.577Z" fill="#BAF6EB"/>
<path d="M143.288 285.577C146.209 285.577 148.577 283.209 148.577 280.288C148.577 277.368 146.209 275 143.288 275C140.368 275 138 277.368 138 280.288C138 283.209 140.368 285.577 143.288 285.577Z" fill="#BAF6EB"/>
<path d="M170.788 285.577C173.709 285.577 176.077 283.209 176.077 280.288C176.077 277.368 173.709 275 170.788 275C167.868 275 165.5 277.368 165.5 280.288C165.5 283.209 167.868 285.577 170.788 285.577Z" fill="#BAF6EB"/>
<path d="M198.288 285.577C201.209 285.577 203.577 283.209 203.577 280.288C203.577 277.368 201.209 275 198.288 275C195.368 275 193 277.368 193 280.288C193 283.209 195.368 285.577 198.288 285.577Z" fill="#BAF6EB"/>
<path d="M225.788 285.577C228.709 285.577 231.077 283.209 231.077 280.288C231.077 277.368 228.709 275 225.788 275C222.868 275 220.5 277.368 220.5 280.288C220.5 283.209 222.868 285.577 225.788 285.577Z" fill="#BAF6EB"/>
<path d="M253.288 285.577C256.209 285.577 258.577 283.209 258.577 280.288C258.577 277.368 256.209 275 253.288 275C250.368 275 248 277.368 248 280.288C248 283.209 250.368 285.577 253.288 285.577Z" fill="#BAF6EB"/>
<path d="M280.788 285.577C283.709 285.577 286.077 283.209 286.077 280.288C286.077 277.368 283.709 275 280.788 275C277.868 275 275.5 277.368 275.5 280.288C275.5 283.209 277.868 285.577 280.788 285.577Z" fill="#BAF6EB"/>
<path d="M308.288 285.577C311.209 285.577 313.577 283.209 313.577 280.288C313.577 277.368 311.209 275 308.288 275C305.368 275 303 277.368 303 280.288C303 283.209 305.368 285.577 308.288 285.577Z" fill="#BAF6EB"/>
<path d="M5.78846 313.077C8.7092 313.077 11.0769 310.709 11.0769 307.788C11.0769 304.868 8.7092 302.5 5.78846 302.5C2.86772 302.5 0.5 304.868 0.5 307.788C0.5 310.709 2.86772 313.077 5.78846 313.077Z" fill="#BAF6EB"/>
<path d="M33.2885 313.077C36.2092 313.077 38.5769 310.709 38.5769 307.788C38.5769 304.868 36.2092 302.5 33.2885 302.5C30.3677 302.5 28 304.868 28 307.788C28 310.709 30.3677 313.077 33.2885 313.077Z" fill="#BAF6EB"/>
<path d="M60.7885 313.077C63.7092 313.077 66.0769 310.709 66.0769 307.788C66.0769 304.868 63.7092 302.5 60.7885 302.5C57.8677 302.5 55.5 304.868 55.5 307.788C55.5 310.709 57.8677 313.077 60.7885 313.077Z" fill="#BAF6EB"/>
<path d="M88.2885 313.077C91.2092 313.077 93.5769 310.709 93.5769 307.788C93.5769 304.868 91.2092 302.5 88.2885 302.5C85.3677 302.5 83 304.868 83 307.788C83 310.709 85.3677 313.077 88.2885 313.077Z" fill="#BAF6EB"/>
<path d="M115.788 313.077C118.709 313.077 121.077 310.709 121.077 307.788C121.077 304.868 118.709 302.5 115.788 302.5C112.868 302.5 110.5 304.868 110.5 307.788C110.5 310.709 112.868 313.077 115.788 313.077Z" fill="#BAF6EB"/>
<path d="M143.288 313.077C146.209 313.077 148.577 310.709 148.577 307.788C148.577 304.868 146.209 302.5 143.288 302.5C140.368 302.5 138 304.868 138 307.788C138 310.709 140.368 313.077 143.288 313.077Z" fill="#BAF6EB"/>
<path d="M170.788 313.077C173.709 313.077 176.077 310.709 176.077 307.788C176.077 304.868 173.709 302.5 170.788 302.5C167.868 302.5 165.5 304.868 165.5 307.788C165.5 310.709 167.868 313.077 170.788 313.077Z" fill="#BAF6EB"/>
<path d="M198.288 313.077C201.209 313.077 203.577 310.709 203.577 307.788C203.577 304.868 201.209 302.5 198.288 302.5C195.368 302.5 193 304.868 193 307.788C193 310.709 195.368 313.077 198.288 313.077Z" fill="#BAF6EB"/>
<path d="M225.788 313.077C228.709 313.077 231.077 310.709 231.077 307.788C231.077 304.868 228.709 302.5 225.788 302.5C222.868 302.5 220.5 304.868 220.5 307.788C220.5 310.709 222.868 313.077 225.788 313.077Z" fill="#BAF6EB"/>
<path d="M253.288 313.077C256.209 313.077 258.577 310.709 258.577 307.788C258.577 304.868 256.209 302.5 253.288 302.5C250.368 302.5 248 304.868 248 307.788C248 310.709 250.368 313.077 253.288 313.077Z" fill="#BAF6EB"/>
<path d="M280.788 313.077C283.709 313.077 286.077 310.709 286.077 307.788C286.077 304.868 283.709 302.5 280.788 302.5C277.868 302.5 275.5 304.868 275.5 307.788C275.5 310.709 277.868 313.077 280.788 313.077Z" fill="#BAF6EB"/>
<path d="M308.288 313.077C311.209 313.077 313.577 310.709 313.577 307.788C313.577 304.868 311.209 302.5 308.288 302.5C305.368 302.5 303 304.868 303 307.788C303 310.709 305.368 313.077 308.288 313.077Z" fill="#BAF6EB"/>
</g>
<defs>
<clipPath id="clip0_615_2619">
<rect width="330" height="313.077" fill="white" transform="translate(0.5)"/>
</clipPath>
</defs>
</svg>
