<svg width="32" height="32" viewBox="0 0 32 32" fill="none" xmlns="http://www.w3.org/2000/svg">
<path d="M21.587 2.66675H10.4137C5.56033 2.66675 2.66699 5.56008 2.66699 10.4134V21.5734C2.66699 26.4401 5.56033 29.3334 10.4137 29.3334H21.5737C26.427 29.3334 29.3203 26.4401 29.3203 21.5867V10.4134C29.3337 5.56008 26.4403 2.66675 21.587 2.66675ZM7.00033 15.8534C7.04033 13.5067 7.97366 11.2934 9.62699 9.64008C11.3337 7.93341 13.6003 7.00008 16.0003 7.00008C18.4003 7.00008 20.667 7.93341 22.3603 9.64008C22.4003 9.68008 22.4403 9.73341 22.4803 9.78675V8.64008C22.4803 8.09341 22.9337 7.64008 23.4803 7.64008C24.027 7.64008 24.4803 8.09341 24.4803 8.64008V12.1734C24.4803 12.7201 24.027 13.1734 23.4803 13.1734H19.947C19.4003 13.1734 18.947 12.7201 18.947 12.1734C18.947 11.6267 19.4003 11.1734 19.947 11.1734H21.0537C21.0137 11.1334 20.987 11.0934 20.947 11.0534C19.627 9.73341 17.867 9.00008 16.0003 9.00008C14.1337 9.00008 12.3737 9.73341 11.0537 11.0534C9.76033 12.3467 9.04033 14.0667 9.01366 15.8934C9.00033 16.4267 8.54699 16.8667 8.00033 16.8667H7.98699C7.44033 16.8667 7.00033 16.4001 7.00033 15.8534ZM22.3603 22.3601C20.667 24.0534 18.4003 25.0001 16.0003 25.0001C13.6003 25.0001 11.3337 24.0667 9.64033 22.3601C9.60033 22.3201 9.56033 22.2667 9.52033 22.2134V23.3467C9.52033 23.8934 9.06699 24.3467 8.52033 24.3467C7.97366 24.3467 7.52033 23.8934 7.52033 23.3467V19.8134C7.52033 19.2667 7.97366 18.8134 8.52033 18.8134H12.0537C12.6003 18.8134 13.0537 19.2667 13.0537 19.8134C13.0537 20.3601 12.6003 20.8134 12.0537 20.8134H10.947C10.987 20.8534 11.0137 20.8934 11.0537 20.9334C12.3737 22.2534 14.1337 22.9867 16.0003 22.9867C17.867 22.9867 19.627 22.2534 20.947 20.9334C22.2537 19.6267 22.987 17.8801 22.987 16.0134C22.987 15.4667 23.4403 15.0134 23.987 15.0134C24.5337 15.0134 24.987 15.4667 24.987 16.0134C24.987 18.4267 24.0537 20.6801 22.3603 22.3601Z" fill="white"/>
</svg>
