<svg width="379" height="273" viewBox="0 0 379 273" fill="none" xmlns="http://www.w3.org/2000/svg">
<path d="M320.053 19.4941H59.5915C44.7792 19.4941 32.7715 31.4905 32.7715 46.2888V242.932C32.7715 257.73 44.7792 269.727 59.5915 269.727H320.053C334.866 269.727 346.873 257.73 346.873 242.932V46.2888C346.873 31.4905 334.866 19.4941 320.053 19.4941Z" fill="white"/>
<path d="M320.053 20.041H59.592C45.082 20.041 33.3193 31.7927 33.3193 46.2891V242.933C33.3193 257.429 45.082 269.181 59.592 269.181H320.053C334.563 269.181 346.325 257.429 346.325 242.933V46.2891C346.325 31.7927 334.563 20.041 320.053 20.041Z" stroke="#1B233D" stroke-opacity="0.03" stroke-width="1.26831"/>
<g filter="url(#filter0_d_611_5375)">
<path d="M344.292 1H35.5872C22.008 1 11 11.9976 11 25.5639V227.917C11 241.484 22.008 252.481 35.5872 252.481H344.292C357.871 252.481 368.879 241.484 368.879 227.917V25.5639C368.879 11.9976 357.871 1 344.292 1Z" fill="white"/>
<path d="M344.174 1.2998H35.4705C22.1937 1.2998 11.4307 12.0527 11.4307 25.317V227.67C11.4307 240.935 22.1937 251.687 35.4705 251.687H344.174C357.451 251.687 368.214 240.935 368.214 227.67V25.317C368.214 12.0527 357.451 1.2998 344.174 1.2998Z" stroke="#1B233D" stroke-opacity="0.03" stroke-width="1.26831"/>
</g>
<path opacity="0.75" d="M326.68 27.1262C325.972 27.1262 325.367 26.9622 324.863 26.6341C324.36 26.2988 323.969 25.836 323.692 25.2455C323.422 24.6478 323.287 23.9553 323.287 23.1681C323.287 22.3881 323.422 21.6993 323.692 21.1015C323.969 20.5038 324.36 20.0409 324.863 19.7129C325.367 19.3776 325.972 19.21 326.68 19.21C327.388 19.21 327.993 19.3776 328.497 19.7129C329 20.0409 329.386 20.5038 329.657 21.1015C329.934 21.6993 330.073 22.3881 330.073 23.1681C330.073 23.9553 329.934 24.6478 329.657 25.2455C329.386 25.836 329 26.2988 328.497 26.6341C327.993 26.9622 327.388 27.1262 326.68 27.1262ZM326.68 25.8688C327.257 25.8688 327.727 25.6282 328.092 25.1471C328.456 24.666 328.639 24.0064 328.639 23.1681C328.639 22.3298 328.456 21.6701 328.092 21.189C327.727 20.7079 327.257 20.4674 326.68 20.4674C326.096 20.4674 325.622 20.7079 325.257 21.189C324.899 21.6701 324.721 22.3298 324.721 23.1681C324.721 24.0064 324.899 24.666 325.257 25.1471C325.622 25.6282 326.096 25.8688 326.68 25.8688ZM333.816 27.1262C333.312 27.1262 332.856 27.0387 332.447 26.8637C332.038 26.6815 331.71 26.4045 331.462 26.0328C331.214 25.661 331.083 25.1945 331.068 24.6332H332.447C332.454 25.005 332.574 25.3184 332.809 25.5735C333.049 25.8214 333.384 25.9453 333.816 25.9453C334.224 25.9453 334.538 25.8324 334.757 25.6063C334.976 25.3803 335.085 25.096 335.085 24.7535C335.085 24.3525 334.938 24.0501 334.647 23.846C334.363 23.6346 333.994 23.5289 333.542 23.5289H332.973V22.3808H333.553C333.925 22.3808 334.235 22.2933 334.483 22.1184C334.73 21.9435 334.855 21.6847 334.855 21.3421C334.855 21.0578 334.76 20.8318 334.571 20.6642C334.388 20.4892 334.133 20.4018 333.805 20.4018C333.447 20.4018 333.165 20.5075 332.962 20.7189C332.765 20.9302 332.655 21.189 332.634 21.4952H331.265C331.294 20.7881 331.539 20.2304 331.999 19.8223C332.465 19.4141 333.067 19.21 333.805 19.21C334.33 19.21 334.771 19.3048 335.129 19.4942C335.493 19.6765 335.767 19.9207 335.95 20.2268C336.139 20.533 336.234 20.8719 336.234 21.2437C336.234 21.6737 336.114 22.0383 335.873 22.3371C335.639 22.6287 335.348 22.8255 334.997 22.9275C335.428 23.015 335.778 23.2263 336.048 23.5617C336.317 23.8897 336.453 24.3052 336.453 24.8082C336.453 25.231 336.35 25.6173 336.147 25.9672C335.942 26.317 335.643 26.5977 335.249 26.8091C334.862 27.0204 334.385 27.1262 333.816 27.1262ZM338.398 27.0715C338.142 27.0715 337.931 26.9913 337.763 26.8309C337.602 26.6705 337.522 26.4775 337.522 26.2514C337.522 26.0182 337.602 25.8214 337.763 25.661C337.931 25.5006 338.142 25.4205 338.398 25.4205C338.653 25.4205 338.861 25.5006 339.022 25.661C339.189 25.8214 339.273 26.0182 339.273 26.2514C339.273 26.4775 339.189 26.6705 339.022 26.8309C338.861 26.9913 338.653 27.0715 338.398 27.0715ZM338.398 23.0915C338.142 23.0915 337.931 23.0114 337.763 22.851C337.602 22.6906 337.522 22.4975 337.522 22.2715C337.522 22.0383 337.602 21.8414 337.763 21.681C337.931 21.5206 338.142 21.4405 338.398 21.4405C338.653 21.4405 338.861 21.5206 339.022 21.681C339.189 21.8414 339.273 22.0383 339.273 22.2715C339.273 22.4975 339.189 22.6906 339.022 22.851C338.861 23.0114 338.653 23.0915 338.398 23.0915ZM343.227 27.1262C342.664 27.1262 342.179 27.0278 341.771 26.8309C341.369 26.6341 341.052 26.3644 340.819 26.0218C340.592 25.6719 340.461 25.2783 340.425 24.841H341.793C341.858 25.1544 342.018 25.4169 342.274 25.6282C342.529 25.8323 342.847 25.9344 343.227 25.9344C343.635 25.9344 343.966 25.7849 344.222 25.4861C344.485 25.1872 344.616 24.8155 344.616 24.3708C344.616 23.9116 344.485 23.5471 344.222 23.2774C343.966 23.0077 343.642 22.8729 343.248 22.8729C342.92 22.8729 342.636 22.953 342.395 23.1134C342.154 23.2738 341.982 23.4742 341.88 23.7148H340.534L341.191 19.3412H345.437V20.5658H342.242L341.891 22.3371C342.051 22.1621 342.27 22.02 342.548 21.9107C342.825 21.794 343.135 21.7357 343.478 21.7357C344.025 21.7357 344.481 21.8596 344.846 22.1075C345.211 22.348 345.488 22.6687 345.678 23.0697C345.867 23.4633 345.963 23.8933 345.963 24.3599C345.963 24.892 345.845 25.3658 345.612 25.7813C345.386 26.1968 345.065 26.5248 344.649 26.7653C344.24 27.0059 343.766 27.1262 343.227 27.1262ZM348.098 26.995V20.9375L346.839 21.2328V20.1612L348.689 19.3412H349.553V26.995H348.098Z" fill="black"/>
<path opacity="0.25" d="M318.278 93.6934H205.829C202.126 93.6934 199.124 96.6925 199.124 100.392V102.302C199.124 106.002 202.126 109.001 205.829 109.001H318.278C321.981 109.001 324.983 106.002 324.983 102.302V100.392C324.983 96.6925 321.981 93.6934 318.278 93.6934Z" fill="#FF8E00"/>
<path opacity="0.25" d="M281.068 119.934H205.829C202.126 119.934 199.124 122.933 199.124 126.632V128.543C199.124 132.242 202.126 135.241 205.829 135.241H281.068C284.771 135.241 287.773 132.242 287.773 128.543V126.632C287.773 122.933 284.771 119.934 281.068 119.934Z" fill="#FF8E00"/>
<path opacity="0.5" d="M103.909 170.229H60.1323C57.1101 170.229 54.6602 172.677 54.6602 175.696C54.6602 178.716 57.1101 181.163 60.1323 181.163H103.909C106.932 181.163 109.381 178.716 109.381 175.696C109.381 172.677 106.932 170.229 103.909 170.229Z" fill="#61BC5B"/>
<path opacity="0.1" d="M177.783 192.097H57.3962C55.8851 192.097 54.6602 193.321 54.6602 194.83C54.6602 196.34 55.8851 197.564 57.3962 197.564H177.783C179.294 197.564 180.519 196.34 180.519 194.83C180.519 193.321 179.294 192.097 177.783 192.097Z" fill="#1B233D"/>
<path opacity="0.03" d="M176.142 70.7285H65.6044C59.5601 70.7285 54.6602 75.6238 54.6602 81.6625V146.173C54.6602 152.211 59.5601 157.107 65.6044 157.107H176.142C182.186 157.107 187.086 152.211 187.086 146.173V81.6625C187.086 75.6238 182.186 70.7285 176.142 70.7285Z" fill="#1B233D"/>
<path opacity="0.07" d="M311.303 192.096H201.86C200.349 192.096 199.124 193.32 199.124 194.829C199.124 196.339 200.349 197.563 201.86 197.563H311.303C312.814 197.563 314.039 196.339 314.039 194.829C314.039 193.32 312.814 192.096 311.303 192.096Z" fill="#1B233D"/>
<path opacity="0.07" d="M154.801 204.124H57.3962C55.8851 204.124 54.6602 205.348 54.6602 206.858C54.6602 208.367 55.8851 209.591 57.3962 209.591H154.801C156.312 209.591 157.537 208.367 157.537 206.858C157.537 205.348 156.312 204.124 154.801 204.124Z" fill="#1B233D"/>
<path opacity="0.1" d="M322.247 204.124H201.86C200.349 204.124 199.124 205.348 199.124 206.858C199.124 208.367 200.349 209.591 201.86 209.591H322.247C323.758 209.591 324.983 208.367 324.983 206.858C324.983 205.348 323.758 204.124 322.247 204.124Z" fill="#1B233D"/>
<path opacity="0.1" d="M162.461 216.152H57.3962C55.8851 216.152 54.6602 217.376 54.6602 218.886C54.6602 220.396 55.8851 221.619 57.3962 221.619H162.461C163.973 221.619 165.198 220.396 165.198 218.886C165.198 217.376 163.973 216.152 162.461 216.152Z" fill="#1B233D"/>
<path opacity="0.07" d="M295.981 216.152H201.86C200.349 216.152 199.124 217.376 199.124 218.886C199.124 220.396 200.349 221.619 201.86 221.619H295.981C297.492 221.619 298.717 220.396 298.717 218.886C298.717 217.376 297.492 216.152 295.981 216.152Z" fill="#1B233D"/>
<path d="M315.535 18.4514L315.554 18.4415L315.572 18.4304C315.571 18.4304 315.572 18.4303 315.573 18.4299C315.573 18.4296 315.574 18.4293 315.575 18.4288C315.578 18.428 315.582 18.4273 315.585 18.4272L315.586 18.4271C315.588 18.427 315.59 18.427 315.592 18.4272V26.8015C315.59 26.8017 315.588 26.8018 315.585 26.8017L315.585 26.8016C315.578 26.8013 315.572 26.799 315.57 26.7974L315.553 26.787L315.535 26.7776L311.872 24.8368L310.941 24.3435V25.3972V28.0869C310.941 28.1957 310.895 28.3087 310.8 28.3983C310.704 28.4887 310.565 28.5462 310.413 28.5462H299.947C299.486 28.5462 299.052 28.3739 298.736 28.0777C298.423 27.7829 298.255 27.392 298.255 26.9935V18.2464C298.255 17.8478 298.423 17.4568 298.736 17.162C299.052 16.866 299.486 16.6937 299.947 16.6937H310.413C310.565 16.6937 310.704 16.7512 310.8 16.8416C310.895 16.9312 310.941 17.0442 310.941 17.153V19.8318V20.8854L311.872 20.3921L315.535 18.4514ZM315.645 26.8316V26.8316Z" fill="#B9DCE0" stroke="#B9DCE0" stroke-width="1.26831"/>
<path opacity="0.25" d="M26.2031 210.684V225.991C26.2031 232.03 31.1031 236.925 37.1474 236.925H52.4694" stroke="#1B233D" stroke-width="2.53662" stroke-linecap="round"/>
<path opacity="0.25" d="M26.2031 78.3841V63.0765C26.2031 57.0377 31.1031 52.1426 37.1474 52.1426H52.4694" stroke="#1B233D" stroke-width="2.53662" stroke-linecap="round"/>
<path opacity="0.25" d="M353.437 210.684V225.646C353.437 231.875 348.382 236.925 342.147 236.925H327.171" stroke="#1B233D" stroke-width="2.53662" stroke-linecap="round"/>
<path opacity="0.25" d="M353.437 78.3841V63.0765C353.437 57.0377 348.537 52.1426 342.493 52.1426H327.171" stroke="#1B233D" stroke-width="2.53662" stroke-linecap="round"/>
<path d="M90.4242 119.501L80.999 131.944C78.2706 135.544 80.8414 140.709 85.3625 140.709H157.474C161.995 140.709 164.566 135.544 161.838 131.944L132.257 92.8928C130.067 90.0019 125.72 90.0019 123.53 92.8928L103.373 119.501C101.749 121.645 98.523 121.645 96.8988 119.501C95.2747 117.355 92.0494 117.355 90.4242 119.501Z" fill="#1B233D"/>
<path d="M96.7932 105.72C101.326 105.72 105.001 102.049 105.001 97.5198C105.001 92.9908 101.326 89.3193 96.7932 89.3193C92.2599 89.3193 88.585 92.9908 88.585 97.5198C88.585 102.049 92.2599 105.72 96.7932 105.72Z" fill="#FF8E00"/>
<path d="M294.028 79.7398C297.482 79.7398 300.282 76.9426 300.282 73.492C300.282 70.0414 297.482 67.2441 294.028 67.2441C290.574 67.2441 287.774 70.0414 287.774 73.492C287.774 76.9426 290.574 79.7398 294.028 79.7398Z" fill="#EF3F36"/>
<path d="M307.668 79.4794V67.8173H311.954C312.887 67.8173 313.654 67.978 314.255 68.2995C314.866 68.6111 315.322 69.0386 315.622 69.5831C315.922 70.1156 316.073 70.7104 316.073 71.3654C316.073 72.0761 315.884 72.7266 315.506 73.3149C315.139 73.9031 314.561 74.3317 313.772 74.5974L316.189 79.4794H313.738L311.57 74.8806H309.802V79.4794H307.668ZM309.802 73.3149H311.82C312.532 73.3149 313.055 73.1432 313.387 72.7988C313.721 72.4544 313.888 71.9984 313.888 71.432C313.888 70.8766 313.721 70.4327 313.387 70.0992C313.066 69.7657 312.537 69.5995 311.804 69.5995H309.802V73.3149ZM318.058 79.4794V67.8173H325.679V69.5328H320.193V72.7321H325.179V74.3973H320.193V77.7639H325.679V79.4794H318.058ZM332.985 79.6795C331.807 79.6795 330.795 79.4291 329.95 78.9295C329.106 78.4188 328.456 77.7136 327.999 76.8137C327.544 75.9029 327.315 74.8533 327.315 73.6648C327.315 72.4762 327.544 71.4266 327.999 70.5158C328.456 69.605 329.106 68.8943 329.95 68.3837C330.795 67.8719 331.807 67.6172 332.985 67.6172C334.386 67.6172 335.532 67.9671 336.421 68.6668C337.321 69.3557 337.883 70.3266 338.105 71.5818H335.754C335.61 70.9488 335.298 70.4545 334.82 70.0992C334.353 69.7329 333.731 69.5492 332.953 69.5492C331.873 69.5492 331.028 69.9166 330.418 70.6492C329.806 71.3818 329.501 72.3877 329.501 73.6648C329.501 74.9418 329.806 75.9478 330.418 76.6804C331.028 77.402 331.873 77.7639 332.953 77.7639C333.731 77.7639 334.353 77.5966 334.82 77.2631C335.298 76.9187 335.61 76.4475 335.754 75.8472H338.105C337.883 77.0466 337.321 77.9859 336.421 78.6627C335.532 79.3406 334.386 79.6795 332.985 79.6795Z" fill="#1B233D"/>
<path opacity="0.1" d="M29.3249 36.6357C28.9778 36.6357 28.6963 36.9169 28.6963 37.2638C28.6963 37.6106 28.9778 37.8917 29.3249 37.8917V36.6357ZM350.879 37.8917C351.227 37.8917 351.508 37.6105 351.508 37.2637C351.508 36.9169 351.227 36.6357 350.879 36.6357V37.8917ZM29.3249 37.8917H350.879V36.6357H29.3249V37.8917Z" fill="#1B233D"/>
<path d="M36.7967 22.3375C36.7967 24.2063 35.2793 25.7219 33.4067 25.7219C31.534 25.7219 30.0166 24.2063 30.0166 22.3375C30.0166 20.4687 31.534 18.9531 33.4067 18.9531C35.2793 18.9531 36.7967 20.4687 36.7967 22.3375Z" stroke="#1B233D" stroke-opacity="0.25" stroke-width="1.45692"/>
<path d="M64.9289 22.3375C64.9289 24.2063 63.4112 25.7219 61.5385 25.7219C59.6659 25.7219 58.1484 24.2063 58.1484 22.3375C58.1484 20.4687 59.6659 18.9531 61.5385 18.9531C63.4112 18.9531 64.9289 20.4687 64.9289 22.3375Z" stroke="#B9DCE0" stroke-width="1.45692"/>
<path d="M50.8602 22.3385C50.8602 24.2033 49.3458 25.7168 47.4757 25.7168C45.6055 25.7168 44.0912 24.2033 44.0912 22.3385C44.0912 20.4737 45.6055 18.9603 47.4757 18.9603C49.3458 18.9603 50.8602 20.4737 50.8602 22.3385Z" fill="#B9DCE0" stroke="#B9DCE0" stroke-width="1.26831"/>
<path d="M182.273 150.09L181.159 149.19C181.066 149.116 180.952 149.066 180.829 149.051C180.705 149.036 180.579 149.054 180.468 149.105C180.357 149.155 180.266 149.235 180.203 149.33C180.141 149.424 180.108 149.532 180.108 149.642V161.293C180.108 161.807 180.819 162.136 181.23 161.679L183.904 158.713C184.156 158.435 184.465 158.214 184.809 158.063C185.154 157.911 185.527 157.833 185.903 157.833M182.273 150.09L185.902 158.517L182.273 150.09ZM185.903 157.833L185.902 158.517L185.903 157.833ZM185.903 157.833L185.902 158.517L185.903 157.833ZM185.903 157.833H190.141C190.777 157.833 190.966 157.116 190.556 156.785H190.555L182.273 150.09M185.902 158.517H190.141C191.374 158.517 191.935 157.019 190.985 156.253L182.273 149.211V150.09" fill="white"/>
<path d="M182.273 150.09L181.159 149.19C181.066 149.116 180.952 149.066 180.829 149.051C180.705 149.036 180.579 149.054 180.468 149.105C180.357 149.155 180.266 149.235 180.203 149.33C180.141 149.424 180.108 149.532 180.108 149.642V161.293C180.108 161.807 180.819 162.136 181.23 161.679L183.904 158.713C184.156 158.435 184.465 158.214 184.809 158.063C185.154 157.911 185.527 157.833 185.903 157.833M182.273 150.09L185.902 158.517M182.273 150.09L190.555 156.785H190.556C190.966 157.116 190.777 157.833 190.141 157.833H185.903M182.273 150.09V149.211L190.985 156.253C191.935 157.019 191.374 158.517 190.141 158.517H185.902M185.903 157.833L185.902 158.517" stroke="#1B233D" stroke-width="1.58539"/>
<defs>
<filter id="filter0_d_611_5375" x="0.796875" y="0.665527" width="378.082" height="271.816" filterUnits="userSpaceOnUse" color-interpolation-filters="sRGB">
<feFlood flood-opacity="0" result="BackgroundImageFix"/>
<feColorMatrix in="SourceAlpha" type="matrix" values="0 0 0 0 0 0 0 0 0 0 0 0 0 0 0 0 0 0 127 0" result="hardAlpha"/>
<feOffset dy="10"/>
<feGaussianBlur stdDeviation="5"/>
<feComposite in2="hardAlpha" operator="out"/>
<feColorMatrix type="matrix" values="0 0 0 0 0.0784314 0 0 0 0 0.0784314 0 0 0 0 0.0784314 0 0 0 0.05 0"/>
<feBlend mode="normal" in2="BackgroundImageFix" result="effect1_dropShadow_611_5375"/>
<feBlend mode="normal" in="SourceGraphic" in2="effect1_dropShadow_611_5375" result="shape"/>
</filter>
</defs>
</svg>
